<svg xmlns="http://www.w3.org/2000/svg" width="900" height="560" viewBox="0 0 900 560" role="img" aria-labelledby="title desc">
  <title id="title">FPGA Pipeline</title>
  <desc id="desc">Timing closure and throughput debugging</desc>
  <defs>
    <linearGradient id="g" x1="0" x2="1" y1="0" y2="1">
      <stop offset="0" stop-color="#e3f5f2"/>
      <stop offset="1" stop-color="#f7f7f2"/>
    </linearGradient>
    <pattern id="grid" width="34" height="34" patternUnits="userSpaceOnUse">
      <path d="M34 0H0V34" fill="none" stroke="#b9d5d0" stroke-width="1" opacity="0.45"/>
    </pattern>
  </defs>
  <rect width="900" height="560" rx="34" fill="url(#g)"/>
  <rect width="900" height="560" rx="34" fill="url(#grid)"/>
  <circle cx="780" cy="90" r="105" fill="#0f766e" opacity="0.10"/>
  <circle cx="120" cy="475" r="120" fill="#b7791f" opacity="0.08"/>
  <text x="70" y="120" fill="#0b4f49" font-size="22" font-weight="800" letter-spacing="2">ADESH BHOR</text>
  <text x="70" y="175" fill="#17211f" font-size="48" font-weight="900">FPGA Pipeline</text>
  <text x="70" y="215" fill="#5c6865" font-size="21" font-weight="600">Timing closure and throughput debugging</text>
  <rect x="70" y="245" width="270" height="38" rx="19" fill="#ffffff" opacity="0.9"/><text x="90" y="270" fill="#0b4f49" font-size="18" font-weight="700">Vivado / Quartus</text><rect x="70" y="297" width="270" height="38" rx="19" fill="#ffffff" opacity="0.9"/><text x="90" y="322" fill="#0b4f49" font-size="18" font-weight="700">Interface debug</text><rect x="70" y="349" width="270" height="38" rx="19" fill="#ffffff" opacity="0.9"/><text x="90" y="374" fill="#0b4f49" font-size="18" font-weight="700">Timing closure</text><rect x="70" y="401" width="270" height="38" rx="19" fill="#ffffff" opacity="0.9"/><text x="90" y="426" fill="#0b4f49" font-size="18" font-weight="700">30% improvement</text>
  
        <rect x="480" y="155" width="100" height="100" rx="18" fill="#ffffff" stroke="#b9d5d0" stroke-width="4"/>
        <rect x="620" y="155" width="100" height="100" rx="18" fill="#ffffff" stroke="#b9d5d0" stroke-width="4"/>
        <rect x="550" y="320" width="100" height="100" rx="18" fill="#0b4f49"/>
        <path d="M580 205h40M670 255l-70 65M530 255l70 65" stroke="#0f766e" stroke-width="8" stroke-linecap="round"/>
        <path d="M505 205h50M645 205h50M575 370h50" stroke="#b7791f" stroke-width="6" stroke-linecap="round"/>
        
</svg>